<svg id="Layer_2" data-name="Layer 2" xmlns="http://www.w3.org/2000/svg" width="147" height="145.111" viewBox="0 0 147 145.111">
  <g id="Layer_1" data-name="Layer 1">
    <path id="Path_2" data-name="Path 2" d="M63.066.255a3.219,3.219,0,0,0-1.65,3.219,15.6,15.6,0,0,0,.858,4.573c.443,1.65.644,2.481.751,3.125a1.037,1.037,0,0,1-.094.858,2.28,2.28,0,0,0,0,1.824c.335.684.845,1.033,1.234.818a1.636,1.636,0,0,0,.362-1.194,17.435,17.435,0,0,0-.858-3.8c-.121-.684-.389-1.636-.483-2.052-.63-2.883-.456-5.029.563-6.706L64.058.4,63.83.188A.979.979,0,0,0,63.549,0a5.365,5.365,0,0,0-.483.255Z" transform="translate(20.942 0)" fill="#d2a658"/>
    <path id="Path_3" data-name="Path 3" d="M81.678.28a2.9,2.9,0,0,0-1.086.63,1.5,1.5,0,0,0-.536,1.717l.121.322-.63,1.167C79.2,4.76,78.633,5.873,78.2,6.57c-2.267,4.56-4.023,6.773-6.531,8.261l-.523.322.228.08a2.9,2.9,0,0,0,2.267-.282,13.009,13.009,0,0,0,3.138-3.621,41.977,41.977,0,0,0,2.763-4.962,30.04,30.04,0,0,1,2.682-4.855c.6-.711.738-1.046.5-1.274a1.448,1.448,0,0,0-1.046.04Z" transform="translate(24.271 0.055)" fill="#d2a658"/>
    <path id="Path_4" data-name="Path 4" d="M38.51,4.384a3.822,3.822,0,0,0,.268,2.374A6.612,6.612,0,0,0,40.2,8.434a48.281,48.281,0,0,1,4.023,4.613c3.272,4.023,4.6,5.5,6.424,6.893.644.5.7.523,1.033.523s.764-.148.764-.389-.738-.992-2.883-2.441a11.413,11.413,0,0,1-1.18-.872,3.313,3.313,0,0,1-.389-.818A13.089,13.089,0,0,0,46.651,13.5a30.658,30.658,0,0,0-3.433-3.715A24.623,24.623,0,0,1,38.94,4.813L38.6,4.25a.523.523,0,0,0-.094.134Z" transform="translate(13.109 1.45)" fill="#d2a658"/>
    <path id="Path_5" data-name="Path 5" d="M51.368,4.687l-.456.107a.872.872,0,0,0-.4.134,2.682,2.682,0,0,0,.389.335,7.041,7.041,0,0,1,1.69,2.267A19.836,19.836,0,0,1,53.849,11.2a13.626,13.626,0,0,0,1.918,4.721,6.545,6.545,0,0,0,1.341,1.341c.107,0,.161-.5.121-1.006a5.23,5.23,0,0,0-1.167-2.682c-.751-.845-1.046-1.743-1.529-4.533-.416-2.481-.63-3.138-1.341-3.8a1.529,1.529,0,0,0-.684-.483,2.682,2.682,0,0,0-1.14-.08Z" transform="translate(17.23 1.589)" fill="#d2a658"/>
    <path id="Path_6" data-name="Path 6" d="M93.91,10.638a29.867,29.867,0,0,1-4.855,2.427A22.129,22.129,0,0,0,83.463,16a11.534,11.534,0,0,0-1.931,1.971l-.282.4.161.148a.925.925,0,0,0,.939,0,2.36,2.36,0,0,0,.5-.523c.925-1.341,2.2-2.079,5.123-3.138A17.689,17.689,0,0,0,92.1,13.025a7.444,7.444,0,0,0,1.529-1.515c.308-.443.657-1.1.577-1.1a.926.926,0,0,0-.3.228Z" transform="translate(27.716 3.551)" fill="#d2a658"/>
    <path id="Path_7" data-name="Path 7" d="M69.1,13.219a25.857,25.857,0,0,0-10.595,3.272c-.778.443-3.313,2.106-4.023,2.682a29.116,29.116,0,0,0-8.047,8.918,21.632,21.632,0,0,0-2.95,12.07,11.52,11.52,0,0,0,.134,1.341,4.319,4.319,0,0,0,.094-1.1A25.589,25.589,0,0,1,49.549,25.4c.416-.51,1.341-1.515,2.052-2.24,1.341-1.341,1.341-1.341.268-.067A23.657,23.657,0,0,0,47.6,30.855a21,21,0,0,0-.939,8.959c0,.523.094.711.161.684l.872-.2c2.266-.51,4.023-.536,8.6-.161,4.023.335,4.761.389,7.631.429,4.131.08,6.706,0,17.435-.979a119.733,119.733,0,0,1,12.446-.63l2.414.08h.563v-.4c0-.335,0-.376.08-.241a16.67,16.67,0,0,0-.121-2.9,25.817,25.817,0,0,0-6.572-13.639,22.8,22.8,0,0,0-7.725-6.223,23.59,23.59,0,0,0-8.6-2.4,35.044,35.044,0,0,0-4.748-.013Z" transform="translate(14.825 4.484)" fill="#d2a658"/>
    <path id="Path_8" data-name="Path 8" d="M33.669,17.743a7.484,7.484,0,0,0-1.046.268,7.9,7.9,0,0,0-1.583.791,6.464,6.464,0,0,0,1.8.228h4.412l1.341.483c.738.255,2.173.791,3.178,1.18a39.2,39.2,0,0,0,7.2,2.159c1.422.228,1.341.228,1.341,0a1.033,1.033,0,0,0-.349-1.194,9.817,9.817,0,0,0-4.439-1.194,12.875,12.875,0,0,1-3.648-1.073c-1.073-.416-3.071-1.086-3.809-1.341a11.172,11.172,0,0,0-4.4-.308Z" transform="translate(10.589 6.021)" fill="#d2a658"/>
    <path id="Path_9" data-name="Path 9" d="M100.921,24.471a9.683,9.683,0,0,1-3.473.5,27.694,27.694,0,0,1-3.567-.134,30.846,30.846,0,0,0-5.9,0,9.992,9.992,0,0,0-2.36.7,5.928,5.928,0,0,0-1.448.885,3.608,3.608,0,0,0,1.341.268,9.388,9.388,0,0,0,2.454-.55c2.32-.738,2.763-.751,6.156-.161a12.982,12.982,0,0,0,3.085.282,4.278,4.278,0,0,0,1.971-.188,4.573,4.573,0,0,0,1.475-.845c.3-.241.832-.831.778-.872a2.025,2.025,0,0,0-.51.121Z" transform="translate(28.712 8.306)" fill="#d2a658"/>
    <path id="Path_10" data-name="Path 10" d="M34.487,28.634a6.706,6.706,0,0,0-2.454.885A5.07,5.07,0,0,0,31,30.471a1.623,1.623,0,0,0,.59-.107,13.411,13.411,0,0,1,4.265-.469,19.889,19.889,0,0,1,2.8.121,39.346,39.346,0,0,1,3.9.778c1.475.389,2.508.308,2.763-.188.148-.3.08-.55-.255-.912a2.387,2.387,0,0,0-1.341-.791,2.32,2.32,0,0,0-1.435.121c-.4.148-.939.121-3.232-.188a21.338,21.338,0,0,0-2.843-.2C35.332,28.607,34.581,28.621,34.487,28.634Z" transform="translate(10.575 9.762)" fill="#d2a658"/>
    <path id="Path_11" data-name="Path 11" d="M95.679,33.541c-.939,0-3.192.134-5,.241s-4.292.2-5.512.241c-3.474.174-4.01.174-4.707.174-1.569.161-5.539.362-8.744.443-.563,0-1.583.094-2.253.161a63.879,63.879,0,0,1-8.047.376c-6.183.094-10.394.08-14.752,0-5.539-.134-10.9-.08-12.808.107H33.37l.979.188A96.87,96.87,0,0,0,53.9,36.961c5.74-.08,8.422-.228,22.96-1.341,4.734-.335,8.865-.563,12.446-.7,2.6-.08,9.67,0,11.507,0A86.074,86.074,0,0,1,112.738,36.4c.778.148,1.422.268,1.435.255a24.007,24.007,0,0,0-3.219-1.542,29.907,29.907,0,0,0-8.61-1.69C100.708,33.514,97.583,33.474,95.679,33.541Z" transform="translate(11.383 11.4)" fill="#d2a658"/>
    <text id="destination" transform="translate(7.625 79.341)" fill="#d6dac7" font-size="66" font-family="ForeverSummer, Forever Summer" letter-spacing="0.01em"><tspan x="0" y="0">d</tspan><tspan y="0" font-size="55">estination</tspan></text>
    <text id="denmark" transform="translate(0 128.111)" fill="#d2a658" font-size="84" font-family="ForeverSummerMarker, Forever Summer Marker" letter-spacing="0.01em"><tspan x="0" y="0">d</tspan><tspan y="0" font-size="70">enmark</tspan></text>
  </g>
</svg>
