<svg xmlns="http://www.w3.org/2000/svg" viewBox="0 0 109.18 99.57"><defs><style>.cls-1,.cls-4{fill:#d2a658;}.cls-2{font-size:50.6px;fill:#d6dac7;font-family:ForeverSummer, Forever Summer;}.cls-3{font-size:42.44px;letter-spacing:0.01em;}.cls-4{font-size:62px;font-family:ForeverSummerMarker, Forever Summer Marker;}.cls-5{font-size:52px;letter-spacing:0.01em;}</style></defs><g id="Layer_2" data-name="Layer 2"><g id="Layer_1-2" data-name="Layer 1"><path class="cls-1" d="M62.64.19a2.4,2.4,0,0,0-1.23,2.4A11.63,11.63,0,0,0,62.05,6c.33,1.23.48,1.85.56,2.33s0,.4-.07.64a1.7,1.7,0,0,0,0,1.36c.25.51.63.77.92.61a1.22,1.22,0,0,0,.27-.89,13,13,0,0,0-.64-2.83C63,6.71,62.8,6,62.73,5.69c-.47-2.15-.34-3.75.42-5l.23-.39L63.21.14A.73.73,0,0,0,63,0,4,4,0,0,0,62.64.19Z"/><path class="cls-1" d="M79,.25a2.16,2.16,0,0,0-.81.47A1.12,1.12,0,0,0,77.79,2l.09.24-.47.87c-.26.48-.68,1.31-1,1.83-1.69,3.4-3,5.05-4.87,6.16l-.39.24.17.06a2.16,2.16,0,0,0,1.69-.21,9.7,9.7,0,0,0,2.34-2.7,31.3,31.3,0,0,0,2.06-3.7,22.4,22.4,0,0,1,2-3.62c.45-.53.55-.78.37-.95A1.08,1.08,0,0,0,79,.25Z"/><path class="cls-1" d="M38.49,4.35a2.85,2.85,0,0,0,.2,1.77,4.93,4.93,0,0,0,1.06,1.25,36,36,0,0,1,3,3.44c2.44,3,3.43,4.1,4.79,5.14.48.37.52.39.77.39s.57-.11.57-.29-.55-.74-2.15-1.82a8.51,8.51,0,0,1-.88-.65,2.47,2.47,0,0,1-.29-.61,9.76,9.76,0,0,0-1-1.82A22.86,22.86,0,0,0,42,8.38a18.36,18.36,0,0,1-3.19-3.71l-.25-.42A.39.39,0,0,0,38.49,4.35Z"/><path class="cls-1" d="M51.15,4.68l-.34.08a.65.65,0,0,0-.3.1,2,2,0,0,0,.29.25A5.25,5.25,0,0,1,52.06,6.8,14.79,14.79,0,0,1,53,9.54a10.16,10.16,0,0,0,1.43,3.52,4.88,4.88,0,0,0,1,1c.08,0,.12-.37.09-.75a3.9,3.9,0,0,0-.87-2c-.56-.63-.78-1.3-1.14-3.38-.31-1.85-.47-2.34-1-2.83A1.14,1.14,0,0,0,52,4.74,2,2,0,0,0,51.15,4.68Z"/><path class="cls-1" d="M90.69,10.58a22.27,22.27,0,0,1-3.62,1.81,16.5,16.5,0,0,0-4.17,2.19,8.6,8.6,0,0,0-1.44,1.47l-.21.3.12.11a.69.69,0,0,0,.7,0,1.76,1.76,0,0,0,.37-.39c.69-1,1.64-1.55,3.82-2.34a13.19,13.19,0,0,0,3.08-1.37,5.55,5.55,0,0,0,1.14-1.13c.23-.33.49-.82.43-.82A.69.69,0,0,0,90.69,10.58Z"/><path class="cls-1" d="M62.58,13.2a19.28,19.28,0,0,0-7.9,2.44c-.58.33-2.47,1.57-3,2a21.71,21.71,0,0,0-6,6.65,16.13,16.13,0,0,0-2.2,9,8.59,8.59,0,0,0,.1,1,3.22,3.22,0,0,0,.07-.82A19.08,19.08,0,0,1,48,22.28c.31-.38,1-1.13,1.53-1.67,1-1,1-1,.2-.05a17.64,17.64,0,0,0-3.18,5.79,15.66,15.66,0,0,0-.7,6.68c0,.39.07.53.12.51l.65-.15c1.69-.38,3-.4,6.41-.12,3,.25,3.55.29,5.69.32,3.08.06,5,0,13-.73A89.28,89.28,0,0,1,81,32.39l1.8.06.42,0v-.3c0-.25,0-.28.06-.18a12.43,12.43,0,0,0-.09-2.16,19.25,19.25,0,0,0-4.9-10.17A17,17,0,0,0,72.53,15a17.59,17.59,0,0,0-6.41-1.79A26.13,26.13,0,0,0,62.58,13.2Z"/><path class="cls-1" d="M33,17.72a5.58,5.58,0,0,0-.78.2,5.89,5.89,0,0,0-1.18.59,4.82,4.82,0,0,0,1.34.17l1.89,0,1.4,0,1,.36c.55.19,1.62.59,2.37.88a29.23,29.23,0,0,0,5.37,1.61c1.06.17,1,.17,1,0a.77.77,0,0,0-.26-.89,7.32,7.32,0,0,0-3.31-.89,9.6,9.6,0,0,1-2.72-.8c-.8-.31-2.29-.81-2.84-1A8.33,8.33,0,0,0,33,17.72Z"/><path class="cls-1" d="M96.66,24.44a7.22,7.22,0,0,1-2.59.37,20.65,20.65,0,0,1-2.66-.1,23,23,0,0,0-4.4,0,7.45,7.45,0,0,0-1.76.52,4.42,4.42,0,0,0-1.08.66,2.69,2.69,0,0,0,1,.2A7,7,0,0,0,87,25.68c1.73-.55,2.06-.56,4.59-.12a9.68,9.68,0,0,0,2.3.21,3.19,3.19,0,0,0,1.47-.14A3.41,3.41,0,0,0,96.46,25c.22-.18.62-.62.58-.65A1.51,1.51,0,0,0,96.66,24.44Z"/><path class="cls-1" d="M33.6,28.63a5,5,0,0,0-1.83.66A3.78,3.78,0,0,0,31,30a1.21,1.21,0,0,0,.44-.08,10,10,0,0,1,3.18-.35,14.83,14.83,0,0,1,2.09.09,29.34,29.34,0,0,1,2.91.58c1.1.29,1.87.23,2.06-.14.11-.22.06-.41-.19-.68a1.78,1.78,0,0,0-1-.59,1.73,1.73,0,0,0-1.07.09c-.3.11-.7.09-2.41-.14a15.91,15.91,0,0,0-2.12-.15C34.23,28.61,33.67,28.62,33.6,28.63Z"/><path class="cls-1" d="M79.83,33.51c-.7,0-2.38.1-3.73.18s-3.2.15-4.11.18C69.4,34,69,34,68.48,34c-1.17.12-4.13.27-6.52.33-.42,0-1.18.07-1.68.12a47.63,47.63,0,0,1-6,.28c-4.61.07-7.75.06-11,0-4.13-.1-8.13-.06-9.55.08l-.36,0,.73.14a72.23,72.23,0,0,0,14.58,1.11c4.28-.06,6.28-.17,17.12-1,3.53-.25,6.61-.42,9.28-.52,1.94-.06,7.21,0,8.58,0a64.18,64.18,0,0,1,8.89,1.1c.58.11,1.06.2,1.07.19a17.9,17.9,0,0,0-2.4-1.15,22.3,22.3,0,0,0-6.42-1.26C83.58,33.49,81.25,33.46,79.83,33.51Z"/><text class="cls-2" transform="translate(5.94 60.15)">d<tspan class="cls-3" x="14.65" y="0">estination</tspan></text><text class="cls-4" transform="translate(0 95.33)">d<tspan class="cls-5" x="16.08" y="0">enmark</tspan></text></g></g></svg>